# xmcd
#
# Track frame offsets:
#	150
#	23680
#	42805
#	66025
#	82985
#	103112
#	124212
#	148260
#	164125
#	186250
#
# Disc length: 2729
#
# Revision: 3
# Processed by: cddbd v1.5.1PL0 Copyright (c) Steve Scherf et al.
# Submitted via: OrangeCD 5.2
# Normalized: r2:DSETVAR1
#
DISCID=8b0aa70a
DTITLE=Various Artist - Superstar Country Dance Hits
DYEAR=1993
DGENRE=Country
TTITLE0=Sawyer Brown - Thank God For You
TTITLE1=Wynonna - No One Else On Earth
TTITLE2=Hal Ketchum - Hearts Are Gonna Roll
TTITLE3=Tanya Tucker - Tell Me About It
TTITLE4=Hank Williams Jr. - All My Rowdy Friends
TTITLE5=Kimber Clayton - If Wishes Were Horses
TTITLE6=Boy Howdy - If This Is Love
TTITLE7=Rick Vincent - Hello, She Lied
TTITLE8=Lyle Lovett - I've Been To Memphis
TTITLE9=Junior Brown - Sugarfoot Rag
EXTD=
EXTT0=
EXTT1=
EXTT2=
EXTT3=
EXTT4=
EXTT5=
EXTT6=
EXTT7=
EXTT8=
EXTT9=
PLAYORDER=
